<svg width="252" height="109" viewBox="0 0 252 109" fill="none" xmlns="http://www.w3.org/2000/svg">
<path d="M2.46699 44.4198C2.46699 49.9604 2.30205 55.6487 2.0455 61.2632C1.95388 63.11 1.84396 65.0862 1.69736 67.0069C1.69736 67.8011 1.56907 68.5768 1.47745 69.3525C1.47745 69.5187 1.33085 70.5345 1.47745 69.9619C1.44178 70.3217 1.38674 70.6793 1.31253 71.0331C1.31253 71.4948 1.11096 71.9381 1.01934 72.3813C0.927713 72.8246 1.01934 72.3813 1.01934 72.3813V72.5106C1.17201 72.237 1.38296 72.0009 1.63699 71.8194C1.89102 71.6378 2.18183 71.5152 2.48849 71.4605C2.79515 71.4057 3.11002 71.4202 3.41047 71.5027C3.71093 71.5853 3.9895 71.734 4.22612 71.9381C4.3544 72.0489 4.86749 73.0831 4.66592 72.566C4.81252 72.9538 4.66592 73.12 4.66592 72.566V71.9565C4.66592 71.8088 4.66592 71.5133 4.66592 72.1412C4.66592 71.9935 4.66592 71.8272 4.66592 71.6795C5.33292 68.3102 6.32091 65.0137 7.61617 61.8357C8.97417 58.1699 10.8238 54.7087 13.1135 51.5487C14.0322 50.2523 15.1742 49.1326 16.4852 48.2428C16.9609 47.9089 17.4959 47.6706 18.0611 47.541C18.6842 47.3563 17.603 47.541 18.2444 47.541H18.6475C18.8487 47.5225 19.0511 47.5225 19.2522 47.541C18.8491 47.541 19.2522 47.541 19.4538 47.541C19.9151 47.6437 20.3468 47.852 20.7154 48.1499C21.084 48.4477 21.3796 48.8271 21.5794 49.2586C22.2707 50.5459 22.7298 51.9466 22.9355 53.3956C23.478 57.4009 23.5149 61.4593 23.0454 65.474C23.0454 66.379 22.8805 67.3209 22.7705 68.1705V68.5768V68.9646C22.7705 68.6876 22.7705 68.6322 22.7705 68.7984C22.7705 68.9646 22.6789 69.4079 22.6423 69.7218C22.5506 70.3682 22.4407 71.0146 22.3307 71.661C22.2272 72.2449 22.3543 72.8465 22.685 73.3372C23.0157 73.8278 23.5237 74.1687 24.1004 74.2868C24.6771 74.405 25.2769 74.2912 25.7714 73.9696C26.2659 73.6481 26.6161 73.1443 26.747 72.566C28.058 66.127 28.3425 59.5185 27.5899 52.9892C27.0951 49.2955 25.7574 45.177 22.3674 43.5333C18.9774 41.8896 14.6528 43.6626 11.7575 46.4883C8.62229 49.7932 6.13535 53.6657 4.4277 57.9019C2.66828 61.7556 1.31701 65.7856 0.396309 69.925C0.0114417 71.2488 -0.0946623 72.639 0.0847959 74.0066C0.159128 74.4107 0.333615 74.7892 0.592036 75.1071C0.850457 75.425 1.18442 75.6719 1.5629 75.8249C1.94137 75.9778 2.35208 76.0319 2.75683 75.982C3.16158 75.9321 3.54722 75.7798 3.87795 75.5394C4.88024 74.669 5.49959 73.4338 5.60046 72.1043C5.90553 70.3065 6.1196 68.4942 6.24183 66.6745C6.84654 59.1393 6.97481 51.5856 7.01146 44.0689C7.01146 41.0954 2.44866 41.4279 2.43033 44.4198" fill="white"/>
<path d="M37 47.3617C37 50.9668 37.1701 54.7161 37.4347 58.3572C37.6348 61.2743 37.988 64.1801 38.493 67.0635C38.7374 69.175 39.4596 71.2107 40.6098 73.0299C40.9584 73.5142 41.4929 73.8482 42.0977 73.9595C42.7026 74.0708 43.329 73.9506 43.8416 73.6247C44.3773 73.3006 44.7634 72.7941 44.9214 72.2081C45.0794 71.6221 44.9974 71.0007 44.692 70.4703C44.4676 70.1626 44.2716 69.8369 44.1061 69.4969C44.3707 70.0557 44.1061 69.3527 44.0116 69.2446C43.9171 69.1364 43.8416 68.7579 43.766 68.5235C43.4452 67.4637 43.1927 66.3862 43.01 65.297C42.5691 62.7122 42.2726 60.1068 42.1217 57.492C41.876 54.0311 41.7248 50.5342 41.7248 47.0192C41.7248 44.1171 37 44.4416 37 47.3617Z" fill="white"/>
<path d="M40.5974 31.3085C39.9101 32.2333 39.2857 33.1994 38.7281 34.2006C38.1958 35.1519 37.7457 36.1431 37.3822 37.1643C37.2539 37.5559 37.154 37.9556 37.0832 38.3604C36.9723 39.0646 36.9723 39.7807 37.0832 40.4849C37.1557 40.7566 37.2884 41.0103 37.4721 41.2289C37.6559 41.4476 37.8866 41.6261 38.1486 41.7525C38.4349 41.8946 38.7493 41.9776 39.0714 41.9961C39.3934 42.0145 39.7159 41.968 40.0179 41.8596C40.6123 41.6495 41.1091 41.2446 41.4198 40.717C41.7156 40.167 41.8016 39.5357 41.6629 38.9317C41.6629 39.1281 41.6629 39.3245 41.7563 39.5209C41.7188 39.2304 41.7188 38.9365 41.7563 38.646C41.7563 38.8424 41.7563 39.0388 41.6629 39.2352C41.7878 38.5678 41.9884 37.9153 42.261 37.2892L42.018 37.8427C42.729 36.2385 43.6189 34.7122 44.6724 33.2901C44.9976 32.7492 45.0849 32.1072 44.9154 31.5048C44.8353 31.2338 44.6977 30.9815 44.5112 30.7634C44.3247 30.5453 44.0933 30.3662 43.8312 30.2373C43.5436 30.098 43.2285 30.0181 42.9065 30.0027C42.5845 29.9874 42.2627 30.0369 41.9619 30.148C41.3856 30.3778 40.8964 30.7702 40.56 31.2727" fill="white"/>
<path d="M68.6685 40C65.0714 40.0858 61.6255 41.4577 58.9612 43.8648C52.915 49.0732 50.7146 58.68 51.5652 65.9496C52.0644 70.7347 55.5405 74.213 60.4959 71.5812C64.3788 69.52 65.1924 65.0846 66.3757 61.2566C68.0213 55.8458 69.519 50.3982 70.9613 44.9507L66.4312 44.6746C66.5191 54.7635 66.0809 64.8502 65.1184 74.894C64.6948 81.3186 63.3819 87.6541 61.217 93.7212C60.0555 97.0841 58.3505 100.236 56.1692 103.052C55.9658 103.273 55.2077 104.285 54.8194 104.285C54.727 104.285 54.9488 104.285 54.9304 104.285C53.8579 104.285 53.0813 101.782 52.878 100.972C52.0644 97.4941 53.1368 93.6108 54.2092 90.0773C55.2758 86.797 56.567 83.5933 58.0737 80.4888C58.2096 80.229 58.2929 79.945 58.3186 79.6532C58.3444 79.3614 58.3121 79.0674 58.2237 78.788C58.1353 78.5085 57.9924 78.2492 57.8033 78.0247C57.6141 77.8002 57.3825 77.6151 57.1214 77.4797C56.8604 77.3444 56.5752 77.2615 56.282 77.2359C55.9888 77.2103 55.6934 77.2424 55.4126 77.3304C55.1319 77.4184 54.8714 77.5606 54.6459 77.7489C54.4203 77.9371 54.2343 78.1677 54.0983 78.4275C50.992 84.9793 47.6268 92.525 48.0336 99.7025C48.2185 103.126 49.5128 106.77 52.6006 108.444C55.6885 110.119 58.2586 107.69 59.9967 105.371C64.526 98.9764 67.4432 91.591 68.5021 83.8383C69.7247 75.8169 70.4534 67.7286 70.6839 59.6186C70.8873 54.5391 71.0167 49.4412 70.9982 44.3617C70.9697 43.8012 70.7346 43.2708 70.3379 42.872C69.9412 42.4731 69.4108 42.2337 68.848 42.1995C68.2852 42.1654 67.7294 42.3389 67.287 42.6868C66.8446 43.0347 66.5465 43.5328 66.4497 44.0857C65.5128 47.656 64.5329 51.2203 63.5098 54.7784C62.7332 57.5022 61.9381 60.2996 61.0691 62.8945C60.7547 63.8147 60.4589 64.735 60.1076 65.6184C60.1076 65.784 59.3125 67.2011 59.7378 66.5938C59.1672 67.3032 58.3605 67.7862 57.4635 67.9556C57.5744 67.9556 57.1677 67.9556 57.0382 67.9556C56.7068 67.6033 56.4714 67.1725 56.3541 66.7042C55.3556 63.5203 56.2062 59.2137 57.0197 55.993C57.655 53.0532 59.0436 50.327 61.0506 48.0794C62.0264 47.0305 63.2069 46.1909 64.5199 45.6118C65.833 45.0327 67.2509 44.7263 68.687 44.7114C71.6269 44.8218 71.6084 40.184 68.687 40.0736" fill="white"/>
<path d="M81.4465 18.3939L79.3039 62.6715C79.1911 64.76 79.0971 66.8486 79.0031 68.9372C78.8716 71.5524 82.9124 71.7159 83.6078 69.2277C85.3107 62.3765 88.033 55.8002 91.6896 49.7042C92.398 48.4552 93.387 47.3754 94.584 46.5441C94.7333 46.4456 94.9107 46.3948 95.0914 46.3988C95.0914 46.3988 95.3546 46.3988 95.223 46.3988C95.5913 46.6446 95.8733 46.993 96.0312 47.3977C97.6287 50.576 97.2904 55.0437 97.1589 58.5852C97.0837 60.6192 96.9333 62.6533 96.7078 64.6874C96.7078 65.3957 96.5574 66.104 96.4635 66.8123C96.3695 67.5206 96.4635 66.5399 96.4635 67.121C96.05 70.045 100.561 70.9712 100.993 68.0291C101.425 65.0869 101.745 61.7997 101.876 58.6941C102.083 54.2082 102.29 48.8688 100.185 44.9096C98.0798 40.9504 93.8322 41.0231 90.5807 44.056C86.8218 47.4885 84.8107 52.6827 83.0628 57.1504C81.5675 60.8042 80.275 64.5327 79.1911 68.3197L83.8146 68.6103L85.9572 24.3146C85.9572 22.226 86.1639 20.1374 86.2579 18.0488C86.4083 15.0885 81.7096 15.4518 81.5592 18.3939" fill="white"/>
<path d="M113.188 2.41809C110.531 23.9133 109.133 45.5357 109 67.1826C109.039 72.705 109.842 78.1976 111.388 83.5153C112.203 86.3105 116.789 84.7942 115.955 81.9807C113.074 72.2797 113.34 61.3912 113.548 51.2153C113.757 41.0393 116.315 18.3306 117.338 8.31905C117.528 6.23636 117.736 4.15367 117.982 2.05271C118.324 -0.925179 113.586 -0.54153 113.245 2.41809" fill="white"/>
<path d="M95.8295 39.9304L142.585 26.436L149.325 24.4638C149.908 24.304 150.403 23.9199 150.702 23.396C151.001 22.872 151.079 22.2512 150.918 21.67C150.758 21.0888 150.373 20.595 149.847 20.2971C149.322 19.9991 148.699 19.9215 148.116 20.0813L101.36 33.6306L94.6207 35.5662C94.0515 35.7358 93.5717 36.121 93.284 36.6393C92.9963 37.1575 92.9238 37.7675 93.0819 38.3384C93.2401 38.9094 93.6163 39.3958 94.1299 39.6934C94.6435 39.991 95.2536 40.0761 95.8295 39.9304Z" fill="white"/>
<path d="M180.557 41.2945C180.001 36.4135 177.907 30.6072 173.142 28.7019C165.542 25.6717 158.313 33.0386 155.236 39.5889C151.906 46.68 150.501 54.4921 151.157 62.27C151.732 67.7134 154.531 74.9714 161.52 72.5037C164.511 71.2955 167.309 69.6698 169.824 67.6771C172.327 65.9046 174.655 63.906 176.776 61.7075C178.77 59.7633 180.446 57.5294 181.744 55.0846C183.041 52.3266 179.056 50.2581 177.74 53.0161C175.237 58.3144 169.546 62.6873 164.634 65.7175C163.493 66.4694 162.311 67.16 161.093 67.786L160.389 68.0582C160.259 68.0582 159.481 68.3122 159.888 68.2396C159.679 68.2571 159.468 68.2571 159.258 68.2396C158.832 68.2396 159.536 68.2396 158.999 68.2396C158.461 68.2396 158.721 68.2396 158.164 67.9312C158.443 68.1126 157.59 67.405 157.59 67.405C157.59 67.405 157.089 66.6247 156.904 66.2618C156.484 65.2562 156.173 64.2102 155.977 63.1409C155.105 56.8551 155.825 50.456 158.072 44.5061C159.796 39.5163 163.355 32.6394 169.454 32.6394C172.123 32.6394 173.736 34.9256 174.644 37.0486C175.099 38.1526 175.453 39.2942 175.701 40.4598L175.923 41.5848C176.053 42.3106 175.923 41.3308 175.923 41.5848C176.257 44.488 180.891 44.1977 180.557 41.2582" fill="white"/>
<path d="M191.384 14.413C190.739 21.3797 190.381 28.3464 190.184 35.3132C189.861 46.821 189.664 58.8943 192.279 69.9644C193.229 73.9767 194.787 78.9556 198.62 80.7793C201.163 82.0012 203.437 77.8066 200.876 76.5847C199.796 76.0028 198.944 75.0636 198.458 73.922C197.66 72.2875 197.058 70.5606 196.667 68.779C195.551 63.7217 194.909 58.5676 194.751 53.3865C194.322 42.6734 194.501 31.944 195.288 21.252C195.449 18.8629 195.611 16.4738 195.843 14.0847C196.112 11.0755 191.635 11.4402 191.366 14.4312" fill="white"/>
<path d="M205.118 41.2679C204.961 44.0641 204.961 46.8671 205.118 49.6633C205.376 53.722 205.689 58.8001 208.344 61.8951C211.276 65.3052 215.72 63.0441 217.951 59.597C220.55 55.5753 221.528 50.4232 222.284 45.8455C222.883 42.3003 223.283 38.724 223.482 35.1335L218.873 35.4671L220.2 63.7669L220.384 67.8442C220.406 68.1484 220.487 68.4453 220.623 68.718C220.759 68.9907 220.947 69.2338 221.177 69.4334C221.406 69.6331 221.673 69.7853 221.961 69.8815C222.249 69.9777 222.553 70.0159 222.855 69.994C223.158 69.9721 223.453 69.8905 223.725 69.7538C223.996 69.6172 224.238 69.4282 224.436 69.1976C224.635 68.9669 224.786 68.6993 224.882 68.4098C224.978 68.1204 225.016 67.8148 224.994 67.5106C224.552 58.0835 224.115 48.6502 223.685 39.2107C223.685 37.8393 223.556 36.4864 223.482 35.1335C223.353 32.0755 219.039 32.4091 218.873 35.4671C218.774 42.0622 217.584 48.5948 215.351 54.797C215.006 55.6508 214.593 56.4751 214.115 57.2619C213.819 57.7246 213.459 58.1427 213.046 58.5036C212.916 58.6131 212.774 58.7064 212.622 58.7815C213.064 58.5406 212.714 58.7815 212.622 58.7815C212.05 59.1522 212.622 58.7815 212.161 58.8927C212.585 58.763 212.401 59.0039 212.161 58.8927C212.161 58.8927 212.64 59.0225 212.253 58.8927C211.866 58.763 211.737 58.5221 212.253 58.8927C212.117 58.7899 211.994 58.6718 211.884 58.5406C211.765 58.3836 211.66 58.2161 211.571 58.0402C211.571 57.892 211.128 57.1136 211.258 57.4101C210.954 56.6214 210.713 55.8095 210.538 54.9823C210.153 53.1509 209.913 51.2918 209.819 49.4224C209.663 46.6261 209.663 43.8232 209.819 41.0269C209.985 37.9505 205.376 38.3026 205.21 41.3606" fill="white"/>
<path d="M238.658 61.8062C239.377 57.6805 239.341 53.4999 240.115 49.356C240.52 46.6133 241.314 43.9451 242.471 41.4348C242.846 40.5892 243.399 39.838 244.09 39.2345C244.374 39.0444 244.683 38.8962 245.008 38.7944C245.116 38.7944 245.17 38.7944 244.918 38.7944C245.331 38.9594 245.439 39.1061 245.745 39.6745C246.119 40.3807 246.403 41.1324 246.591 41.9115C247.131 44.2129 247.421 46.5681 247.454 48.9342C247.698 54.3929 247.165 59.8588 245.871 65.1617C245.497 66.8441 244.846 68.4498 243.946 69.9107C243.515 70.4608 243.946 69.9107 243.515 70.3324C243.676 70.1491 243.928 70.3324 243.605 70.3324C242.452 70.092 241.383 69.5412 240.51 68.7372C238.628 66.7784 237.185 64.426 236.283 61.8428C235.995 61.1277 235.779 60.376 235.509 59.6608C235.24 58.9457 235.509 60.486 235.509 59.8075C235.923 56.8371 235.851 53.7566 236.013 50.8045L236.931 34.3021L238.442 7.10965C238.604 4.06586 234.106 4.43259 233.944 7.45804C233.441 16.3694 232.943 25.2746 232.451 34.1737C232.109 40.3163 231.786 46.4405 231.444 52.5098C231.02 55.3054 230.899 58.1401 231.084 60.9627C231.61 63.0339 232.416 65.0208 233.477 66.8669C234.818 69.9324 237.063 72.496 239.899 74.2013C244.99 76.7501 248.102 72.8078 249.685 67.8937C251.442 61.9542 252.209 55.7559 251.951 49.5577C251.951 45.0836 251.718 38.556 248.354 35.4756C247.409 34.6731 246.219 34.2336 244.99 34.2336C243.76 34.2336 242.57 34.6731 241.626 35.4756C238.999 37.4192 237.668 40.9764 236.769 43.9468C235.796 47.5483 235.134 51.2295 234.79 54.9485C234.628 56.3787 234.502 57.8089 234.376 59.2575L234.268 60.596C234.268 61.036 234.142 61.6411 234.268 60.9627C234.147 61.5487 234.258 62.16 234.579 62.662C234.899 63.1641 235.402 63.5158 235.977 63.6398C236.552 63.7638 237.152 63.6499 237.644 63.3232C238.137 62.9966 238.482 62.4838 238.604 61.8979" fill="white"/>
</svg>
